# xmcd
#
# Track frame offsets:
#	150
#	18940
#	39295
#	61900
#	82232
#	103870
#	121117
#	141675
#	163110
#	183752
#	205565
#	214627
#	243350
#
# Disc length: 3628 seconds
#
# Revision: 2
# Processed by: cddbd v1.4b41PL2 Copyright (c) Steve Scherf et al.
# Submitted via: EZCDDA 4.3.2
#
DISCID=ae0e2a0d
DTITLE=유재하를 추모하는 앨범 - 다시 돌아온 그대위해
DYEAR=1900
DGENRE=
TTITLE0=다시 돌아온 그대위해
TTITLE1=지난 날
TTITLE2=그대 내 품에
TTITLE3=텅빈 오늘밤
TTITLE4=내 마음에 비친 내 모습
TTITLE5=가리워진 길
TTITLE6=우울한 편지
TTITLE7=우리들의 사랑
TTITLE8=비애
TTITLE9=그대와 영원히
TTITLE10=Minuet
TTITLE11=사랑하기 때문에
TTITLE12=재하를 그리워 하며
EXTD=
EXTT0=
EXTT1=
EXTT2=
EXTT3=
EXTT4=
EXTT5=
EXTT6=
EXTT7=
EXTT8=
EXTT9=
EXTT10=
EXTT11=
EXTT12=
PLAYORDER=
